<?xml version="1.0" standalone="no"?>
<!DOCTYPE svg PUBLIC "-//W3C//DTD SVG 20010904//EN"
 "http://www.w3.org/TR/2001/REC-SVG-20010904/DTD/svg10.dtd">
<svg version="1.0" xmlns="http://www.w3.org/2000/svg"
 width="800.000000pt" height="800.000000pt" viewBox="0 0 800.000000 800.000000"
 preserveAspectRatio="xMidYMid meet">
<metadata>
Created by potrace 1.11, written by Peter Selinger 2001-2013
</metadata>
<g transform="translate(0.000000,800.000000) scale(0.100000,-0.100000)"
fill="#000000" stroke="none">
<path d="M0 4000 l0 -4000 4000 0 4000 0 0 4000 0 4000 -4000 0 -4000 0 0
-4000z m5137 1993 l212 -128 1 -90 0 -90 -180 -133 -180 -132 -368 0 -367 0
-22 35 c-59 90 -196 121 -301 69 -149 -74 -171 -276 -42 -386 99 -85 235 -76
324 23 l44 49 331 0 332 0 -3 -132 -3 -132 -230 -138 c-126 -77 -235 -142
-242 -146 -9 -6 1 -91 44 -355 l56 -348 -30 -32 c-61 -64 -82 -137 -63 -217
17 -70 58 -122 121 -154 206 -103 424 111 319 314 -22 43 -76 95 -112 109 -17
6 -28 20 -32 38 -6 27 -86 520 -86 528 0 2 106 67 235 145 l235 141 0 217 1
217 173 127 173 127 294 -85 c162 -46 311 -89 332 -95 l37 -10 0 -208 0 -209
308 -136 307 -137 104 -410 103 -410 -140 -247 c-77 -136 -155 -273 -173 -304
l-33 -58 -188 0 -188 0 0 190 0 191 -85 187 -85 187 25 49 c89 176 -68 380
-259 337 -183 -41 -250 -268 -117 -397 31 -30 70 -51 135 -70 25 -8 37 -29
102 -172 l74 -164 0 -251 -1 -252 -77 -120 -78 -120 -847 -5 -848 -5 -82 -140
-83 -140 -114 -3 -115 -2 -250 276 c-185 205 -249 282 -247 298 4 28 131 589
135 591 1 0 21 9 45 20 82 35 132 117 132 214 -1 134 -100 231 -237 231 -174
0 -285 -181 -208 -337 14 -28 34 -58 43 -67 18 -15 15 -30 -59 -358 -43 -189
-80 -350 -81 -359 -2 -10 97 -125 237 -280 132 -144 248 -272 257 -284 17 -21
15 -24 -95 -143 l-111 -122 -281 0 -280 -1 -160 -149 c-88 -82 -167 -149 -175
-150 -8 0 -188 49 -400 110 -212 61 -386 110 -387 110 -1 0 -144 181 -318 401
l-317 402 76 481 c42 264 79 490 81 501 3 11 49 50 105 88 l99 67 286 0 285 0
0 -22 c0 -13 -7 -174 -15 -358 -14 -296 -18 -336 -33 -344 -36 -19 -101 -97
-111 -133 -19 -67 -13 -126 17 -184 88 -170 329 -169 415 0 51 102 31 209 -52
284 l-43 38 16 352 c9 194 16 368 16 388 0 34 11 45 297 295 163 142 306 266
317 275 18 14 29 15 72 6 100 -20 201 30 248 124 80 161 -31 342 -209 342
-139 0 -244 -114 -233 -251 l3 -45 -318 -278 -319 -279 -239 0 -239 0 0 381 0
381 275 288 275 288 37 -4 c151 -16 258 -23 263 -17 4 5 53 65 109 136 l103
127 385 0 384 0 61 128 c33 70 65 133 71 140 7 9 162 12 711 12 l701 0 212
-127z"/>
</g>
</svg>
